# xmcd CD database file generated by Grip 2.94
# 
# Track frame offsets:
#       150
#       11280
#       23802
#       39190
#       51082
#       61737
#       74220
#       85155
#       96617
#       109977
#       129187
#       141315
#       162852
#       172930
#       199122
#       225425
#       237182
#       249192
# 
# Disc length: 3510 seconds
# 
# Revision: 3
# Processed by: cddbd v1.4b41PL1 Copyright (c) Steve Scherf et al.
# Submitted via: Grip 2.94
# 
DISCID=e50db412
DTITLE=Various Artist - Boom Boom
DYEAR=1900
DGENRE=
TTITLE0=Boom Boom
TTITLE1=Standing At The Crossroads
TTITLE2=Goin' Down Slow
TTITLE3=Got My Mojo Working
TTITLE4=Out Of Sight
TTITLE5=Highway 49
TTITLE6=Coming Home
TTITLE7=Easy On Your Heels
TTITLE8=Rollin' And Tumblin'
TTITLE9=Nine Below Zero
TTITLE10=Rooster Blues
TTITLE11=Blues For The Lowlands
TTITLE12=Dimples
TTITLE13=Ridin' On The L&N
TTITLE14=Little Red Rooster
TTITLE15=Ride In My New Car
TTITLE16=Paying The Cost To Be The Boss
TTITLE17=Spike Drivers Blues
EXTD=
EXTT0=
EXTT1=
EXTT2=
EXTT3=
EXTT4=
EXTT5=
EXTT6=
EXTT7=
EXTT8=
EXTT9=
EXTT10=
EXTT11=
EXTT12=
EXTT13=
EXTT14=
EXTT15=
EXTT16=
EXTT17=
PLAYORDER=
